<?xml version="1.0" encoding="UTF-8" standalone="no"?>
<svg
   xmlns:dc="http://purl.org/dc/elements/1.1/"
   xmlns:cc="http://creativecommons.org/ns#"
   xmlns:rdf="http://www.w3.org/1999/02/22-rdf-syntax-ns#"
   xmlns:svg="http://www.w3.org/2000/svg"
   xmlns="http://www.w3.org/2000/svg"
   xmlns:sodipodi="http://sodipodi.sourceforge.net/DTD/sodipodi-0.dtd"
   xmlns:inkscape="http://www.inkscape.org/namespaces/inkscape"
   sodipodi:docname="calibriwhite.svg"
   inkscape:version="1.0 (4035a4fb49, 2020-05-01)"
   id="svg8"
   version="1.1"
   viewBox="0 0 655.72015 72.966896"
   height="72.966896mm"
   width="655.72015mm">
  <defs
     id="defs2" />
  <sodipodi:namedview
     inkscape:window-maximized="0"
     inkscape:window-y="0"
     inkscape:window-x="192"
     inkscape:window-height="1030"
     inkscape:window-width="1424"
     showgrid="false"
     inkscape:document-rotation="0"
     inkscape:current-layer="layer1"
     inkscape:document-units="mm"
     inkscape:cy="966.35516"
     inkscape:cx="1240.5054"
     inkscape:zoom="0.24748737"
     inkscape:pageshadow="2"
     inkscape:pageopacity="0.0"
     borderopacity="1.0"
     bordercolor="#666666"
     pagecolor="#ffffff"
     id="base" />
  <metadata
     id="metadata5">
    <rdf:RDF>
      <cc:Work
         rdf:about="">
        <dc:format>image/svg+xml</dc:format>
        <dc:type
           rdf:resource="http://purl.org/dc/dcmitype/StillImage" />
        <dc:title></dc:title>
      </cc:Work>
    </rdf:RDF>
  </metadata>
  <g
     transform="translate(29.665255,107.5148)"
     id="layer1"
     inkscape:groupmode="layer"
     inkscape:label="Layer 1">
    <g
       style="font-size:105.833px;line-height:99.9538px;font-family:Calibri;-inkscape-font-specification:Calibri;letter-spacing:0px;stroke-width:0.264583;fill:#ffffff;fill-opacity:1"
       id="text835"
       aria-label="KB Architecture">
      <path
         id="path837"
         style="stroke-width:0.264583;fill:#ffffff;fill-opacity:1"
         d="m 13.949516,-36.976694 q 0,0.41341 -0.206705,0.775144 -0.155029,0.310058 -0.671791,0.516763 -0.516763,0.206705 -1.39526,0.310057 -0.878496,0.155029 -2.2737554,0.155029 -1.8086694,0 -2.9455474,-0.155029 -1.1368779,-0.155028 -1.7053169,-0.568439 -0.5684389,-0.41341 -0.9301728,-0.930172 L -20.776937,-70.307888 v 33.434547 q 0,0.361733 -0.206705,0.723467 -0.206705,0.310058 -0.723468,0.516763 -0.516762,0.155029 -1.395259,0.258381 -0.82682,0.155029 -2.118727,0.155029 -1.240231,0 -2.118727,-0.155029 -0.878497,-0.103352 -1.395259,-0.258381 -0.516763,-0.206705 -0.723468,-0.516763 -0.206705,-0.361734 -0.206705,-0.723467 v -64.181929 q 0,-0.41341 0.206705,-0.72347 0.206705,-0.31005 0.723468,-0.46508 0.516762,-0.20671 1.395259,-0.31006 0.878496,-0.15503 2.118727,-0.15503 1.291907,0 2.118727,0.15503 0.878497,0.10335 1.395259,0.31006 0.516763,0.15503 0.723468,0.46508 0.206705,0.31006 0.206705,0.72347 v 29.713857 L 2.8907946,-101.05527 q 0.3100576,-0.46508 0.7234678,-0.77514 0.4134102,-0.31006 0.9818491,-0.46509 0.6201153,-0.2067 1.4469356,-0.31006 0.8784966,-0.10335 2.2220796,-0.10335 1.343583,0 2.1704033,0.15503 0.82682,0.10335 1.291907,0.31006 0.516762,0.2067 0.671791,0.51676 0.206705,0.31006 0.206705,0.67179 0,0.67179 -0.361734,1.343585 -0.310057,0.671791 -1.24023,1.860345 l -22.16912,26.509927 23.874437,31.729229 q 0.878496,1.343583 1.033525,1.860346 0.206705,0.465086 0.206705,0.775144 z" />
      <path
         id="path839"
         style="stroke-width:0.264583;fill:#ffffff;fill-opacity:1"
         d="m 69.398154,-54.701654 q 0,3.152252 -0.826821,5.839418 -0.775144,2.63549 -2.222079,4.754217 -1.446936,2.118727 -3.513986,3.720691 -2.015375,1.601965 -4.599188,2.687166 -2.532138,1.085202 -5.477685,1.653641 -2.893871,0.516763 -6.666239,0.516763 H 28.625577 q -1.188554,0 -2.273756,-0.775144 -1.033525,-0.826821 -1.033525,-2.842195 v -59.634415 q 0,-2.015378 1.033525,-2.790518 1.085202,-0.82682 2.273756,-0.82682 H 43.8184 q 5.994448,0 9.818492,1.13688 3.824043,1.13687 6.356181,3.307278 2.583813,2.170403 3.87572,5.322656 1.291907,3.152252 1.291907,7.131325 0,2.377108 -0.568439,4.547512 -0.568439,2.170403 -1.705317,4.030749 -1.085202,1.808669 -2.790519,3.255605 -1.65364,1.446935 -3.824044,2.377108 2.738843,0.516763 5.115951,1.912022 2.377108,1.343583 4.134102,3.46231 1.808669,2.118727 2.842194,4.960922 1.033526,2.842195 1.033526,6.252829 z M 56.014,-84.622215 q 0,-2.428784 -0.671792,-4.392483 -0.671791,-1.963698 -2.118727,-3.307281 -1.446935,-1.395259 -3.772367,-2.118727 -2.325432,-0.723468 -6.149476,-0.723468 h -9.198376 v 21.652357 H 44.23181 q 3.462311,0 5.581038,-0.878496 2.118727,-0.930173 3.513986,-2.428785 1.395259,-1.550288 2.015374,-3.565662 0.671792,-2.067051 0.671792,-4.237455 z m 4.030749,30.437323 q 0,-2.997223 -0.981849,-5.270979 -0.930173,-2.273756 -2.790519,-3.824044 -1.808669,-1.550288 -4.599188,-2.325432 -2.738842,-0.826821 -6.92462,-0.826821 H 34.103262 v 23.564379 h 12.919067 q 3.0489,0 5.322656,-0.723468 2.273756,-0.723467 3.979073,-2.118727 1.756993,-1.446935 2.738842,-3.565662 0.981849,-2.118727 0.981849,-4.909246 z" />
      <path
         id="path841"
         style="stroke-width:0.264583;fill:#ffffff;fill-opacity:1"
         d="m 157.0411,-38.682011 q 0.41341,1.136878 0.41341,1.860346 0.0517,0.671791 -0.36173,1.033525 -0.41341,0.361734 -1.39526,0.465087 -0.93018,0.103352 -2.53214,0.103352 -1.60196,0 -2.58381,-0.103352 -0.93018,-0.05168 -1.44694,-0.206705 -0.46509,-0.206706 -0.72347,-0.516763 -0.2067,-0.310058 -0.41341,-0.775144 l -5.73606,-16.278025 h -27.80184 l -5.47768,16.07132 q -0.15503,0.465086 -0.41341,0.82682 -0.25838,0.310058 -0.77515,0.568439 -0.46508,0.206705 -1.39525,0.310058 -0.8785,0.103352 -2.32544,0.103352 -1.49861,0 -2.48046,-0.155029 -0.93017,-0.103352 -1.34358,-0.465086 -0.361735,-0.361734 -0.361735,-1.033525 0.05168,-0.723468 0.465085,-1.860346 l 22.4275,-62.114873 q 0.20671,-0.56844 0.51677,-0.93018 0.36173,-0.36173 0.98184,-0.56844 0.6718,-0.2067 1.65365,-0.25838 1.03352,-0.10335 2.58381,-0.10335 1.65364,0 2.73884,0.10335 1.0852,0.0517 1.75699,0.25838 0.6718,0.20671 1.03353,0.62012 0.36173,0.36173 0.56844,0.93017 z m -28.78368,-54.828522 h -0.0517 l -11.52381,33.331194 h 23.25432 z" />
      <path
         id="path843"
         style="stroke-width:0.264583;fill:#ffffff;fill-opacity:1"
         d="m 194.35137,-80.281408 q 0,1.136878 -0.0517,1.912022 -0.0517,0.775144 -0.2067,1.240231 -0.15503,0.41341 -0.41341,0.671791 -0.20671,0.206705 -0.62012,0.206705 -0.41341,0 -1.03352,-0.206705 -0.56844,-0.258381 -1.34358,-0.465086 -0.72347,-0.258382 -1.65365,-0.465087 -0.93017,-0.206705 -2.01537,-0.206705 -1.29191,0 -2.53214,0.516763 -1.24023,0.516762 -2.63549,1.705317 -1.34358,1.188554 -2.84219,3.152252 -1.49861,1.963698 -3.30728,4.805893 v 30.592352 q 0,0.41341 -0.20671,0.723468 -0.2067,0.258381 -0.67179,0.465086 -0.46509,0.206705 -1.29191,0.310058 -0.82682,0.103352 -2.11872,0.103352 -1.24023,0 -2.06705,-0.103352 -0.82682,-0.103353 -1.34359,-0.310058 -0.46508,-0.206705 -0.67179,-0.465086 -0.15503,-0.310058 -0.15503,-0.723468 v -46.508643 q 0,-0.41341 0.15503,-0.671791 0.15503,-0.310058 0.62012,-0.516763 0.46508,-0.258381 1.18855,-0.310058 0.72347,-0.103352 1.91202,-0.103352 1.13688,0 1.86035,0.103352 0.77514,0.05168 1.18855,0.310058 0.41341,0.206705 0.56844,0.516763 0.20671,0.258381 0.20671,0.671791 v 6.769591 q 1.91202,-2.790518 3.56566,-4.547511 1.70532,-1.756993 3.20393,-2.738843 1.49861,-1.033525 2.94555,-1.395259 1.49861,-0.41341 2.99722,-0.41341 0.67179,0 1.49861,0.103353 0.8785,0.05168 1.80867,0.258381 0.93017,0.206705 1.65364,0.465086 0.77515,0.258382 1.0852,0.516763 0.31006,0.258381 0.41341,0.516763 0.10336,0.206705 0.15503,0.568439 0.10335,0.361734 0.10335,1.085201 0.0517,0.671792 0.0517,1.860346 z" />
      <path
         id="path845"
         style="stroke-width:0.264583;fill:#ffffff;fill-opacity:1"
         d="m 236.15747,-43.901314 q 0,0.878496 -0.0517,1.550288 -0.0517,0.620115 -0.2067,1.085202 -0.10336,0.41341 -0.31006,0.775144 -0.15503,0.310057 -0.82682,0.981849 -0.62012,0.620115 -2.1704,1.601964 -1.55029,0.930173 -3.51399,1.705317 -1.91202,0.723468 -4.18578,1.188554 -2.27375,0.465087 -4.70254,0.465087 -5.0126,0 -8.88832,-1.653641 -3.87572,-1.653641 -6.51121,-4.805893 -2.58381,-3.203929 -3.97907,-7.803117 -1.34358,-4.650864 -1.34358,-10.696988 0,-6.872943 1.65364,-11.782189 1.70531,-4.960922 4.59918,-8.113174 2.94555,-3.152253 6.87295,-4.650865 3.97907,-1.550288 8.57826,-1.550288 2.22208,0 4.28913,0.41341 2.11873,0.413411 3.87572,1.085202 1.75699,0.671792 3.10058,1.550288 1.39526,0.878497 2.01537,1.498612 0.62012,0.620115 0.82682,0.981849 0.25838,0.361734 0.41341,0.878497 0.15503,0.465086 0.20671,1.085201 0.0517,0.620116 0.0517,1.550288 0,2.015375 -0.46508,2.842195 -0.46509,0.775144 -1.13688,0.775144 -0.77515,0 -1.80867,-0.82682 -0.98185,-0.878497 -2.53214,-1.912022 -1.55029,-1.033525 -3.77237,-1.860346 -2.1704,-0.878496 -5.16762,-0.878496 -6.14948,0 -9.45676,4.754217 -3.25561,4.70254 -3.25561,13.694211 0,4.495835 0.82682,7.906469 0.8785,3.358958 2.53214,5.632714 1.65364,2.273756 4.03075,3.410633 2.42879,1.085202 5.52936,1.085202 2.94555,0 5.16763,-0.930173 2.22208,-0.930173 3.82404,-2.015374 1.65364,-1.136878 2.73885,-2.015375 1.13687,-0.930173 1.75699,-0.930173 0.36173,0 0.62011,0.206705 0.25839,0.206706 0.41341,0.723468 0.20671,0.465087 0.25839,1.240231 0.10335,0.723467 0.10335,1.756993 z" />
      <path
         id="path847"
         style="stroke-width:0.264583;fill:#ffffff;fill-opacity:1"
         d="m 287.62704,-36.821665 q 0,0.41341 -0.2067,0.723468 -0.20671,0.258381 -0.6718,0.465086 -0.46508,0.206705 -1.2919,0.310058 -0.82682,0.103352 -2.06705,0.103352 -1.29191,0 -2.11873,-0.103352 -0.82682,-0.103353 -1.29191,-0.310058 -0.46508,-0.206705 -0.67179,-0.465086 -0.2067,-0.310058 -0.2067,-0.723468 v -27.233394 q 0,-3.979073 -0.62012,-6.407858 -0.62011,-2.428784 -1.80867,-4.185778 -1.18855,-1.756993 -3.10057,-2.687166 -1.86035,-0.930172 -4.34081,-0.930172 -3.20393,0 -6.40786,2.273755 -3.20393,2.273756 -6.71791,6.666239 v 32.504374 q 0,0.41341 -0.20671,0.723468 -0.2067,0.258381 -0.67179,0.465086 -0.46509,0.206705 -1.29191,0.310058 -0.82682,0.103352 -2.11872,0.103352 -1.24023,0 -2.06705,-0.103352 -0.82682,-0.103353 -1.34359,-0.310058 -0.46508,-0.206705 -0.67179,-0.465086 -0.15503,-0.310058 -0.15503,-0.723468 v -69.039495 q 0,-0.41341 0.15503,-0.72347 0.20671,-0.31006 0.67179,-0.51676 0.51677,-0.20671 1.34359,-0.31006 0.82682,-0.10335 2.06705,-0.10335 1.2919,0 2.11872,0.10335 0.82682,0.10335 1.29191,0.31006 0.46509,0.2067 0.67179,0.51676 0.20671,0.31006 0.20671,0.72347 v 27.853508 q 3.66901,-3.87572 7.3897,-5.736066 3.72069,-1.912022 7.49306,-1.912022 4.65087,0 7.80312,1.601964 3.20393,1.550288 5.16763,4.185778 1.96369,2.63549 2.79051,6.201153 0.8785,3.513986 0.8785,8.526584 z" />
      <path
         id="path849"
         style="stroke-width:0.264583;fill:#ffffff;fill-opacity:1"
         d="m 311.70818,-36.821665 q 0,0.41341 -0.2067,0.723468 -0.20671,0.258381 -0.67179,0.465086 -0.46509,0.206705 -1.29191,0.310058 -0.82682,0.103352 -2.11873,0.103352 -1.24023,0 -2.06705,-0.103352 -0.82682,-0.103353 -1.34358,-0.310058 -0.46509,-0.206705 -0.67179,-0.465086 -0.15503,-0.310058 -0.15503,-0.723468 v -46.508643 q 0,-0.361734 0.15503,-0.671791 0.2067,-0.310058 0.67179,-0.516763 0.51676,-0.206705 1.34358,-0.310058 0.82682,-0.103352 2.06705,-0.103352 1.29191,0 2.11873,0.103352 0.82682,0.103353 1.29191,0.310058 0.46508,0.206705 0.67179,0.516763 0.2067,0.310057 0.2067,0.671791 z m 0.98185,-62.218229 q 0,2.997224 -1.13687,4.082425 -1.13688,1.085202 -4.18578,1.085202 -2.99723,0 -4.1341,-1.033525 -1.0852,-1.085202 -1.0852,-4.030749 0,-2.997219 1.13687,-4.082429 1.13688,-1.0852 4.18578,-1.0852 2.99722,0 4.08243,1.0852 1.13687,1.03353 1.13687,3.979076 z" />
      <path
         id="path851"
         style="stroke-width:0.264583;fill:#ffffff;fill-opacity:1"
         d="m 351.7573,-40.232299 q 0,1.498612 -0.20671,2.377108 -0.2067,0.878497 -0.62011,1.291907 -0.41341,0.41341 -1.24023,0.775144 -0.82682,0.361734 -1.91202,0.568439 -1.03353,0.258382 -2.22208,0.41341 -1.18856,0.155029 -2.37711,0.155029 -3.61734,0 -6.20115,-0.930173 -2.58382,-0.981849 -4.23746,-2.893871 -1.65364,-1.963698 -2.42878,-4.909245 -0.72347,-2.997224 -0.72347,-7.027973 v -27.181718 h -6.51121 q -0.77514,0 -1.24023,-0.82682 -0.46509,-0.826821 -0.46509,-2.687166 0,-0.981849 0.10336,-1.653641 0.15502,-0.671791 0.36173,-1.085202 0.2067,-0.465086 0.51676,-0.620115 0.36174,-0.206705 0.77515,-0.206705 h 6.45953 v -11.058722 q 0,-0.361733 0.15503,-0.671791 0.2067,-0.310058 0.67179,-0.516763 0.51676,-0.258381 1.34358,-0.361734 0.82682,-0.103352 2.06705,-0.103352 1.29191,0 2.11873,0.103352 0.82682,0.103353 1.29191,0.361734 0.46508,0.206705 0.67179,0.516763 0.2067,0.310058 0.2067,0.671791 v 11.058722 h 11.93722 q 0.41341,0 0.72347,0.206705 0.31006,0.155029 0.51676,0.620115 0.25838,0.413411 0.36174,1.085202 0.10335,0.671792 0.10335,1.653641 0,1.860345 -0.46509,2.687166 -0.46508,0.82682 -1.24023,0.82682 h -11.93722 v 25.941487 q 0,4.805893 1.39526,7.286354 1.44694,2.428785 5.11595,2.428785 1.18856,0 2.11873,-0.206705 0.93017,-0.258381 1.65364,-0.516763 0.72347,-0.258381 1.24023,-0.465086 0.51677,-0.258381 0.93018,-0.258381 0.25838,0 0.46508,0.155028 0.25838,0.103353 0.36174,0.465087 0.15502,0.361734 0.25838,0.981849 0.10335,0.620115 0.10335,1.550288 z" />
      <path
         id="path853"
         style="stroke-width:0.264583;fill:#ffffff;fill-opacity:1"
         d="m 401.77993,-62.091361 q 0,2.015374 -1.03353,2.893871 -0.98185,0.82682 -2.27376,0.82682 h -30.489 q 0,3.875721 0.77515,6.976297 0.77514,3.100576 2.58381,5.322656 1.80867,2.222079 4.70254,3.410633 2.89387,1.188555 7.07965,1.188555 3.30728,0 5.8911,-0.516763 2.58381,-0.568439 4.44416,-1.240231 1.91202,-0.671791 3.10057,-1.188554 1.24023,-0.568439 1.86035,-0.568439 0.36173,0 0.62011,0.206705 0.31006,0.155029 0.46509,0.516763 0.15503,0.361734 0.2067,1.033525 0.10336,0.620116 0.10336,1.550288 0,0.671792 -0.0517,1.188555 -0.0517,0.465086 -0.15503,0.878496 -0.0517,0.361734 -0.25838,0.671792 -0.15503,0.310057 -0.46509,0.620115 -0.25838,0.258381 -1.65364,0.930173 -1.39526,0.620115 -3.61734,1.24023 -2.22207,0.620116 -5.16762,1.085202 -2.89387,0.516763 -6.20115,0.516763 -5.73607,0 -10.07688,-1.601965 -4.28913,-1.601964 -7.23467,-4.754216 -2.94555,-3.152253 -4.44416,-7.90647 -1.49862,-4.754217 -1.49862,-11.058721 0,-5.994448 1.55029,-10.748665 1.55029,-4.805893 4.44416,-8.113174 2.94555,-3.358957 7.07965,-5.115951 4.1341,-1.808669 9.25005,-1.808669 5.47769,0 9.30173,1.756993 3.87572,1.756993 6.35618,4.754217 2.48046,2.945547 3.61734,6.976296 1.18856,3.979073 1.18856,8.526585 z m -8.57827,-2.532137 q 0.15503,-6.717915 -2.99722,-10.541959 -3.10058,-3.824044 -9.25005,-3.824044 -3.15225,0 -5.52936,1.188554 -2.37711,1.188554 -3.97908,3.152252 -1.60196,1.963699 -2.48046,4.599188 -0.87849,2.583814 -0.98185,5.426009 z" />
      <path
         id="path855"
         style="stroke-width:0.264583;fill:#ffffff;fill-opacity:1"
         d="m 448.23687,-43.901314 q 0,0.878496 -0.0517,1.550288 -0.0517,0.620115 -0.20671,1.085202 -0.10335,0.41341 -0.31005,0.775144 -0.15503,0.310057 -0.82682,0.981849 -0.62012,0.620115 -2.17041,1.601964 -1.55029,0.930173 -3.51398,1.705317 -1.91203,0.723468 -4.18578,1.188554 -2.27376,0.465087 -4.70254,0.465087 -5.0126,0 -8.88832,-1.653641 -3.87572,-1.653641 -6.51121,-4.805893 -2.58381,-3.203929 -3.97907,-7.803117 -1.34359,-4.650864 -1.34359,-10.696988 0,-6.872943 1.65364,-11.782189 1.70532,-4.960922 4.59919,-8.113174 2.94555,-3.152253 6.87295,-4.650865 3.97907,-1.550288 8.57826,-1.550288 2.22208,0 4.28913,0.41341 2.11872,0.413411 3.87572,1.085202 1.75699,0.671792 3.10057,1.550288 1.39526,0.878497 2.01538,1.498612 0.62011,0.620115 0.82682,0.981849 0.25838,0.361734 0.41341,0.878497 0.15503,0.465086 0.2067,1.085201 0.0517,0.620116 0.0517,1.550288 0,2.015375 -0.46509,2.842195 -0.46508,0.775144 -1.13687,0.775144 -0.77515,0 -1.80867,-0.82682 -0.98185,-0.878497 -2.53214,-1.912022 -1.55029,-1.033525 -3.77237,-1.860346 -2.1704,-0.878496 -5.16763,-0.878496 -6.14947,0 -9.45675,4.754217 -3.25561,4.70254 -3.25561,13.694211 0,4.495835 0.82682,7.906469 0.8785,3.358958 2.53214,5.632714 1.65364,2.273756 4.03075,3.410633 2.42878,1.085202 5.52936,1.085202 2.94555,0 5.16763,-0.930173 2.22208,-0.930173 3.82404,-2.015374 1.65364,-1.136878 2.73884,-2.015375 1.13688,-0.930173 1.757,-0.930173 0.36173,0 0.62011,0.206705 0.25838,0.206706 0.41341,0.723468 0.20671,0.465087 0.25838,1.240231 0.10335,0.723467 0.10335,1.756993 z" />
      <path
         id="path857"
         style="stroke-width:0.264583;fill:#ffffff;fill-opacity:1"
         d="m 483.84183,-40.232299 q 0,1.498612 -0.2067,2.377108 -0.20671,0.878497 -0.62012,1.291907 -0.41341,0.41341 -1.24023,0.775144 -0.82682,0.361734 -1.91202,0.568439 -1.03352,0.258382 -2.22208,0.41341 -1.18855,0.155029 -2.37711,0.155029 -3.61734,0 -6.20115,-0.930173 -2.58381,-0.981849 -4.23745,-2.893871 -1.65364,-1.963698 -2.42879,-4.909245 -0.72347,-2.997224 -0.72347,-7.027973 v -27.181718 h -6.51121 q -0.77514,0 -1.24023,-0.82682 -0.46508,-0.826821 -0.46508,-2.687166 0,-0.981849 0.10335,-1.653641 0.15503,-0.671791 0.36173,-1.085202 0.20671,-0.465086 0.51677,-0.620115 0.36173,-0.206705 0.77514,-0.206705 h 6.45953 v -11.058722 q 0,-0.361733 0.15503,-0.671791 0.20671,-0.310058 0.67179,-0.516763 0.51677,-0.258381 1.34359,-0.361734 0.82682,-0.103352 2.06705,-0.103352 1.2919,0 2.11872,0.103352 0.82682,0.103353 1.29191,0.361734 0.46509,0.206705 0.67179,0.516763 0.20671,0.310058 0.20671,0.671791 v 11.058722 h 11.93722 q 0.41341,0 0.72346,0.206705 0.31006,0.155029 0.51677,0.620115 0.25838,0.413411 0.36173,1.085202 0.10335,0.671792 0.10335,1.653641 0,1.860345 -0.46508,2.687166 -0.46509,0.82682 -1.24023,0.82682 H 470.1993 v 25.941487 q 0,4.805893 1.39526,7.286354 1.44693,2.428785 5.11595,2.428785 1.18855,0 2.11873,-0.206705 0.93017,-0.258381 1.65364,-0.516763 0.72346,-0.258381 1.24023,-0.465086 0.51676,-0.258381 0.93017,-0.258381 0.25838,0 0.46509,0.155028 0.25838,0.103353 0.36173,0.465087 0.15503,0.361734 0.25838,0.981849 0.10335,0.620115 0.10335,1.550288 z" />
      <path
         id="path859"
         style="stroke-width:0.264583;fill:#ffffff;fill-opacity:1"
         d="m 535.05303,-36.821665 q 0,0.41341 -0.20671,0.723468 -0.15503,0.258381 -0.62011,0.465086 -0.46509,0.206705 -1.24023,0.310058 -0.72347,0.103352 -1.80867,0.103352 -1.18856,0 -1.9637,-0.103352 -0.72347,-0.103353 -1.18856,-0.310058 -0.41341,-0.206705 -0.56844,-0.465086 -0.15502,-0.310058 -0.15502,-0.723468 v -6.149476 q -3.97908,4.392483 -7.8548,6.407857 -3.87572,2.015375 -7.85479,2.015375 -4.65086,0 -7.85479,-1.550288 -3.15226,-1.550289 -5.11595,-4.185778 -1.9637,-2.687166 -2.8422,-6.201153 -0.82682,-3.565662 -0.82682,-8.629937 v -28.215243 q 0,-0.41341 0.15503,-0.671791 0.20671,-0.310058 0.72347,-0.516763 0.51676,-0.258381 1.34358,-0.310058 0.82682,-0.103352 2.06705,-0.103352 1.24023,0 2.06705,0.103352 0.82682,0.05168 1.29191,0.310058 0.51676,0.206705 0.72347,0.516763 0.2067,0.258381 0.2067,0.671791 v 27.078365 q 0,4.082426 0.56844,6.562887 0.62012,2.428784 1.80867,4.185778 1.24023,1.705316 3.10058,2.687166 1.86034,0.930172 4.3408,0.930172 3.20393,0 6.35618,-2.273755 3.20393,-2.273756 6.7696,-6.666239 v -32.504374 q 0,-0.41341 0.15502,-0.671791 0.20671,-0.310058 0.72347,-0.516763 0.51677,-0.258381 1.29191,-0.310058 0.82682,-0.103352 2.11873,-0.103352 1.24023,0 2.06705,0.103352 0.82682,0.05168 1.2919,0.310058 0.46509,0.206705 0.6718,0.516763 0.25838,0.258381 0.25838,0.671791 z" />
      <path
         id="path861"
         style="stroke-width:0.264583;fill:#ffffff;fill-opacity:1"
         d="m 577.99598,-80.281408 q 0,1.136878 -0.0517,1.912022 -0.0517,0.775144 -0.2067,1.240231 -0.15503,0.41341 -0.41341,0.671791 -0.20671,0.206705 -0.62012,0.206705 -0.41341,0 -1.03352,-0.206705 -0.56844,-0.258381 -1.34359,-0.465086 -0.72346,-0.258382 -1.65364,-0.465087 -0.93017,-0.206705 -2.01537,-0.206705 -1.29191,0 -2.53214,0.516763 -1.24023,0.516762 -2.63549,1.705317 -1.34358,1.188554 -2.84219,3.152252 -1.49862,1.963698 -3.30729,4.805893 v 30.592352 q 0,0.41341 -0.2067,0.723468 -0.20671,0.258381 -0.67179,0.465086 -0.46509,0.206705 -1.29191,0.310058 -0.82682,0.103352 -2.11873,0.103352 -1.24023,0 -2.06705,-0.103352 -0.82682,-0.103353 -1.34358,-0.310058 -0.46509,-0.206705 -0.67179,-0.465086 -0.15503,-0.310058 -0.15503,-0.723468 v -46.508643 q 0,-0.41341 0.15503,-0.671791 0.15503,-0.310058 0.62011,-0.516763 0.46509,-0.258381 1.18856,-0.310058 0.72347,-0.103352 1.91202,-0.103352 1.13688,0 1.86035,0.103352 0.77514,0.05168 1.18855,0.310058 0.41341,0.206705 0.56844,0.516763 0.2067,0.258381 0.2067,0.671791 v 6.769591 q 1.91203,-2.790518 3.56567,-4.547511 1.70531,-1.756993 3.20393,-2.738843 1.49861,-1.033525 2.94554,-1.395259 1.49862,-0.41341 2.99723,-0.41341 0.67179,0 1.49861,0.103353 0.8785,0.05168 1.80867,0.258381 0.93017,0.206705 1.65364,0.465086 0.77514,0.258382 1.0852,0.516763 0.31006,0.258381 0.41341,0.516763 0.10335,0.206705 0.15503,0.568439 0.10335,0.361734 0.10335,1.085201 0.0517,0.671792 0.0517,1.860346 z" />
      <path
         id="path863"
         style="stroke-width:0.264583;fill:#ffffff;fill-opacity:1"
         d="m 626.05492,-62.091361 q 0,2.015374 -1.03353,2.893871 -0.98185,0.82682 -2.27375,0.82682 h -30.489 q 0,3.875721 0.77514,6.976297 0.77515,3.100576 2.58382,5.322656 1.80867,2.222079 4.70254,3.410633 2.89387,1.188555 7.07965,1.188555 3.30728,0 5.89109,-0.516763 2.58381,-0.568439 4.44416,-1.240231 1.91202,-0.671791 3.10058,-1.188554 1.24023,-0.568439 1.86034,-0.568439 0.36174,0 0.62012,0.206705 0.31005,0.155029 0.46508,0.516763 0.15503,0.361734 0.20671,1.033525 0.10335,0.620116 0.10335,1.550288 0,0.671792 -0.0517,1.188555 -0.0517,0.465086 -0.15502,0.878496 -0.0517,0.361734 -0.25839,0.671792 -0.15502,0.310057 -0.46508,0.620115 -0.25838,0.258381 -1.65364,0.930173 -1.39526,0.620115 -3.61734,1.24023 -2.22208,0.620116 -5.16763,1.085202 -2.89387,0.516763 -6.20115,0.516763 -5.73607,0 -10.07687,-1.601965 -4.28913,-1.601964 -7.23468,-4.754216 -2.94555,-3.152253 -4.44416,-7.90647 -1.49861,-4.754217 -1.49861,-11.058721 0,-5.994448 1.55029,-10.748665 1.55028,-4.805893 4.44416,-8.113174 2.94554,-3.358957 7.07964,-5.115951 4.13411,-1.808669 9.25006,-1.808669 5.47768,0 9.30172,1.756993 3.87573,1.756993 6.35619,4.754217 2.48046,2.945547 3.61733,6.976296 1.18856,3.979073 1.18856,8.526585 z m -8.57826,-2.532137 q 0.15503,-6.717915 -2.99723,-10.541959 -3.10057,-3.824044 -9.25005,-3.824044 -3.15225,0 -5.52936,1.188554 -2.37711,1.188554 -3.97907,3.152252 -1.60197,1.963699 -2.48046,4.599188 -0.8785,2.583814 -0.98185,5.426009 z" />
    </g>
  </g>
</svg>
